<mxfile host="app.diagrams.net" agent="Mozilla/5.0 (X11; Linux x86_64) AppleWebKit/537.36 (KHTML, like Gecko) Chrome/133.0.0.0 Safari/537.36" version="26.2.14">
  <diagram name="Page-1" id="L4ATmHOxBW7hnk37qFYO">
    <mxGraphModel dx="1724" dy="1750" grid="1" gridSize="10" guides="1" tooltips="1" connect="1" arrows="1" fold="1" page="0" pageScale="1" pageWidth="850" pageHeight="1100" math="0" shadow="0">
      <root>
        <mxCell id="0" />
        <mxCell id="1" parent="0" />
        <mxCell id="7BeZ9nyPgXJLnocpsz5R-1" value="" style="shape=mxgraph.signs.healthcare.eye;html=1;pointerEvents=1;fillColor=#000000;strokeColor=none;verticalLabelPosition=bottom;verticalAlign=top;align=center;" parent="1" vertex="1">
          <mxGeometry x="-249.5" y="-250" width="99" height="55" as="geometry" />
        </mxCell>
        <mxCell id="7BeZ9nyPgXJLnocpsz5R-4" value="Retinal Ganglion&lt;div&gt;&lt;br&gt;&lt;/div&gt;&lt;div&gt;&lt;ul style=&quot;text-align: left; padding-left: 15px; margin-top: 2px; margin-bottom: 2px;&quot;&gt;&lt;li style=&quot;line-height: 12px;&quot;&gt;Center surround&lt;/li&gt;&lt;li style=&quot;line-height: 12px;&quot;&gt;All cells maintain baseline firing rate&lt;/li&gt;&lt;ul style=&quot;padding-left: 15px;&quot;&gt;&lt;li style=&quot;line-height: 12px;&quot;&gt;Increase in light = higher firing rate&lt;/li&gt;&lt;li style=&quot;line-height: 12px;&quot;&gt;Decrease in light = lower firing rate&lt;/li&gt;&lt;li style=&quot;line-height: 12px;&quot;&gt;Over time, new baseline by&amp;nbsp;&amp;nbsp;&lt;/li&gt;&lt;/ul&gt;&lt;/ul&gt;&lt;/div&gt;" style="rounded=0;whiteSpace=wrap;html=1;" parent="1" vertex="1">
          <mxGeometry x="-330" y="-180" width="260" height="120" as="geometry" />
        </mxCell>
        <mxCell id="7BeZ9nyPgXJLnocpsz5R-5" value="V1" style="rounded=0;whiteSpace=wrap;html=1;" parent="1" vertex="1">
          <mxGeometry x="80" y="520" width="120" height="60" as="geometry" />
        </mxCell>
        <mxCell id="7BeZ9nyPgXJLnocpsz5R-6" value="V2" style="rounded=0;whiteSpace=wrap;html=1;" parent="1" vertex="1">
          <mxGeometry x="230" y="520" width="120" height="60" as="geometry" />
        </mxCell>
        <mxCell id="7BeZ9nyPgXJLnocpsz5R-7" value="" style="endArrow=classic;html=1;rounded=0;exitX=1;exitY=0.5;exitDx=0;exitDy=0;entryX=0;entryY=0.5;entryDx=0;entryDy=0;" parent="1" source="7BeZ9nyPgXJLnocpsz5R-5" target="7BeZ9nyPgXJLnocpsz5R-6" edge="1">
          <mxGeometry width="50" height="50" relative="1" as="geometry">
            <mxPoint x="400" y="500" as="sourcePoint" />
            <mxPoint x="450" y="450" as="targetPoint" />
          </mxGeometry>
        </mxCell>
        <mxCell id="7BeZ9nyPgXJLnocpsz5R-8" value="" style="endArrow=classic;html=1;rounded=0;exitX=1;exitY=0.5;exitDx=0;exitDy=0;entryX=0;entryY=0.5;entryDx=0;entryDy=0;" parent="1" source="7BeZ9nyPgXJLnocpsz5R-6" target="7BeZ9nyPgXJLnocpsz5R-9" edge="1">
          <mxGeometry width="50" height="50" relative="1" as="geometry">
            <mxPoint x="210" y="560" as="sourcePoint" />
            <mxPoint x="240" y="560" as="targetPoint" />
          </mxGeometry>
        </mxCell>
        <mxCell id="7BeZ9nyPgXJLnocpsz5R-9" value="MT" style="rounded=0;whiteSpace=wrap;html=1;" parent="1" vertex="1">
          <mxGeometry x="375" y="520" width="120" height="60" as="geometry" />
        </mxCell>
        <mxCell id="7BeZ9nyPgXJLnocpsz5R-10" value="PPC" style="rounded=0;whiteSpace=wrap;html=1;" parent="1" vertex="1">
          <mxGeometry x="520" y="520" width="120" height="60" as="geometry" />
        </mxCell>
        <mxCell id="7BeZ9nyPgXJLnocpsz5R-11" value="" style="endArrow=classic;html=1;rounded=0;exitX=1;exitY=0.5;exitDx=0;exitDy=0;entryX=0;entryY=0.5;entryDx=0;entryDy=0;" parent="1" source="7BeZ9nyPgXJLnocpsz5R-9" target="7BeZ9nyPgXJLnocpsz5R-10" edge="1">
          <mxGeometry width="50" height="50" relative="1" as="geometry">
            <mxPoint x="360" y="560" as="sourcePoint" />
            <mxPoint x="385" y="560" as="targetPoint" />
          </mxGeometry>
        </mxCell>
        <mxCell id="7BeZ9nyPgXJLnocpsz5R-12" value="Motor" style="rounded=0;whiteSpace=wrap;html=1;" parent="1" vertex="1">
          <mxGeometry x="690" y="460" width="120" height="60" as="geometry" />
        </mxCell>
        <mxCell id="7BeZ9nyPgXJLnocpsz5R-13" value="Prefrontal" style="rounded=0;whiteSpace=wrap;html=1;" parent="1" vertex="1">
          <mxGeometry x="690" y="590" width="120" height="60" as="geometry" />
        </mxCell>
        <mxCell id="7BeZ9nyPgXJLnocpsz5R-14" value="" style="endArrow=classic;html=1;rounded=0;exitX=1;exitY=0.25;exitDx=0;exitDy=0;entryX=0;entryY=0.5;entryDx=0;entryDy=0;" parent="1" source="7BeZ9nyPgXJLnocpsz5R-10" target="7BeZ9nyPgXJLnocpsz5R-12" edge="1">
          <mxGeometry width="50" height="50" relative="1" as="geometry">
            <mxPoint x="600" y="710" as="sourcePoint" />
            <mxPoint x="650" y="660" as="targetPoint" />
          </mxGeometry>
        </mxCell>
        <mxCell id="7BeZ9nyPgXJLnocpsz5R-15" value="" style="endArrow=classic;html=1;rounded=0;exitX=1;exitY=0.75;exitDx=0;exitDy=0;entryX=0;entryY=0.5;entryDx=0;entryDy=0;" parent="1" source="7BeZ9nyPgXJLnocpsz5R-10" target="7BeZ9nyPgXJLnocpsz5R-13" edge="1">
          <mxGeometry width="50" height="50" relative="1" as="geometry">
            <mxPoint x="600" y="710" as="sourcePoint" />
            <mxPoint x="650" y="660" as="targetPoint" />
          </mxGeometry>
        </mxCell>
        <mxCell id="7BeZ9nyPgXJLnocpsz5R-16" value="&lt;h1 style=&quot;margin-top: 0px;&quot;&gt;Where (dorsal) pipeline&lt;/h1&gt;" style="text;html=1;whiteSpace=wrap;overflow=hidden;rounded=0;" parent="1" vertex="1">
          <mxGeometry x="30" y="450" width="290" height="50" as="geometry" />
        </mxCell>
        <mxCell id="7BeZ9nyPgXJLnocpsz5R-17" value="&lt;h1 style=&quot;margin-top: 0px;&quot;&gt;What (ventral) pipeline&lt;/h1&gt;" style="text;html=1;whiteSpace=wrap;overflow=hidden;rounded=0;" parent="1" vertex="1">
          <mxGeometry x="20" y="680" width="290" height="50" as="geometry" />
        </mxCell>
        <mxCell id="7BeZ9nyPgXJLnocpsz5R-18" value="V1" style="rounded=0;whiteSpace=wrap;html=1;" parent="1" vertex="1">
          <mxGeometry x="80" y="770" width="120" height="60" as="geometry" />
        </mxCell>
        <mxCell id="7BeZ9nyPgXJLnocpsz5R-19" value="V2" style="rounded=0;whiteSpace=wrap;html=1;" parent="1" vertex="1">
          <mxGeometry x="230" y="770" width="120" height="60" as="geometry" />
        </mxCell>
        <mxCell id="7BeZ9nyPgXJLnocpsz5R-20" value="" style="endArrow=classic;html=1;rounded=0;exitX=1;exitY=0.5;exitDx=0;exitDy=0;entryX=0;entryY=0.5;entryDx=0;entryDy=0;" parent="1" source="7BeZ9nyPgXJLnocpsz5R-18" target="7BeZ9nyPgXJLnocpsz5R-19" edge="1">
          <mxGeometry width="50" height="50" relative="1" as="geometry">
            <mxPoint x="400" y="750" as="sourcePoint" />
            <mxPoint x="450" y="700" as="targetPoint" />
          </mxGeometry>
        </mxCell>
        <mxCell id="7BeZ9nyPgXJLnocpsz5R-31" value="V4" style="rounded=0;whiteSpace=wrap;html=1;" parent="1" vertex="1">
          <mxGeometry x="375" y="770" width="120" height="60" as="geometry" />
        </mxCell>
        <mxCell id="7BeZ9nyPgXJLnocpsz5R-32" value="Temporal Cortex" style="rounded=0;whiteSpace=wrap;html=1;" parent="1" vertex="1">
          <mxGeometry x="520" y="770" width="120" height="60" as="geometry" />
        </mxCell>
        <mxCell id="7BeZ9nyPgXJLnocpsz5R-33" value="" style="endArrow=classic;html=1;rounded=0;exitX=1;exitY=0.5;exitDx=0;exitDy=0;entryX=0;entryY=0.5;entryDx=0;entryDy=0;" parent="1" source="7BeZ9nyPgXJLnocpsz5R-31" target="7BeZ9nyPgXJLnocpsz5R-32" edge="1">
          <mxGeometry width="50" height="50" relative="1" as="geometry">
            <mxPoint x="360" y="810" as="sourcePoint" />
            <mxPoint x="385" y="810" as="targetPoint" />
          </mxGeometry>
        </mxCell>
        <mxCell id="7BeZ9nyPgXJLnocpsz5R-34" value="Hippocampus" style="rounded=0;whiteSpace=wrap;html=1;" parent="1" vertex="1">
          <mxGeometry x="690" y="710" width="120" height="60" as="geometry" />
        </mxCell>
        <mxCell id="7BeZ9nyPgXJLnocpsz5R-35" value="Prefrontal" style="rounded=0;whiteSpace=wrap;html=1;" parent="1" vertex="1">
          <mxGeometry x="690" y="840" width="120" height="60" as="geometry" />
        </mxCell>
        <mxCell id="7BeZ9nyPgXJLnocpsz5R-36" value="" style="endArrow=classic;html=1;rounded=0;exitX=1;exitY=0.25;exitDx=0;exitDy=0;entryX=0;entryY=0.5;entryDx=0;entryDy=0;" parent="1" source="7BeZ9nyPgXJLnocpsz5R-32" target="7BeZ9nyPgXJLnocpsz5R-34" edge="1">
          <mxGeometry width="50" height="50" relative="1" as="geometry">
            <mxPoint x="600" y="960" as="sourcePoint" />
            <mxPoint x="650" y="910" as="targetPoint" />
          </mxGeometry>
        </mxCell>
        <mxCell id="7BeZ9nyPgXJLnocpsz5R-37" value="" style="endArrow=classic;html=1;rounded=0;exitX=1;exitY=0.75;exitDx=0;exitDy=0;entryX=0;entryY=0.5;entryDx=0;entryDy=0;" parent="1" source="7BeZ9nyPgXJLnocpsz5R-32" target="7BeZ9nyPgXJLnocpsz5R-35" edge="1">
          <mxGeometry width="50" height="50" relative="1" as="geometry">
            <mxPoint x="600" y="960" as="sourcePoint" />
            <mxPoint x="650" y="910" as="targetPoint" />
          </mxGeometry>
        </mxCell>
        <mxCell id="7BeZ9nyPgXJLnocpsz5R-38" value="" style="endArrow=classic;html=1;rounded=0;exitX=1;exitY=0.5;exitDx=0;exitDy=0;entryX=0;entryY=0.5;entryDx=0;entryDy=0;" parent="1" source="7BeZ9nyPgXJLnocpsz5R-19" target="7BeZ9nyPgXJLnocpsz5R-31" edge="1">
          <mxGeometry width="50" height="50" relative="1" as="geometry">
            <mxPoint x="360" y="560" as="sourcePoint" />
            <mxPoint x="370" y="800" as="targetPoint" />
          </mxGeometry>
        </mxCell>
        <mxCell id="7BeZ9nyPgXJLnocpsz5R-39" value="Temporal Cortex&lt;div&gt;(what it is)&lt;br&gt;&lt;div&gt;(It&#39;s a bird)&lt;/div&gt;&lt;/div&gt;" style="rounded=0;whiteSpace=wrap;html=1;" parent="1" vertex="1">
          <mxGeometry x="110" y="960" width="120" height="60" as="geometry" />
        </mxCell>
        <mxCell id="7BeZ9nyPgXJLnocpsz5R-40" value="Superior Temporal Sulcus&lt;div&gt;(bridge allowing movement of face + face to be identified as a facial expression)&lt;/div&gt;" style="rounded=0;whiteSpace=wrap;html=1;" parent="1" vertex="1">
          <mxGeometry x="70" y="1050" width="200" height="100" as="geometry" />
        </mxCell>
        <mxCell id="7BeZ9nyPgXJLnocpsz5R-41" value="PPC&amp;nbsp;&lt;div&gt;(motion)&lt;/div&gt;&lt;div&gt;(how is it moving)&lt;/div&gt;" style="rounded=0;whiteSpace=wrap;html=1;" parent="1" vertex="1">
          <mxGeometry x="110" y="1180" width="120" height="60" as="geometry" />
        </mxCell>
        <mxCell id="7BeZ9nyPgXJLnocpsz5R-42" value="" style="endArrow=classic;startArrow=classic;html=1;rounded=0;exitX=0.5;exitY=0;exitDx=0;exitDy=0;entryX=0.5;entryY=1;entryDx=0;entryDy=0;" parent="1" source="7BeZ9nyPgXJLnocpsz5R-41" target="7BeZ9nyPgXJLnocpsz5R-40" edge="1">
          <mxGeometry width="50" height="50" relative="1" as="geometry">
            <mxPoint x="600" y="950" as="sourcePoint" />
            <mxPoint x="650" y="900" as="targetPoint" />
          </mxGeometry>
        </mxCell>
        <mxCell id="7BeZ9nyPgXJLnocpsz5R-43" value="" style="endArrow=classic;startArrow=classic;html=1;rounded=0;exitX=0.5;exitY=0;exitDx=0;exitDy=0;entryX=0.5;entryY=1;entryDx=0;entryDy=0;" parent="1" source="7BeZ9nyPgXJLnocpsz5R-40" target="7BeZ9nyPgXJLnocpsz5R-39" edge="1">
          <mxGeometry width="50" height="50" relative="1" as="geometry">
            <mxPoint x="600" y="950" as="sourcePoint" />
            <mxPoint x="650" y="900" as="targetPoint" />
          </mxGeometry>
        </mxCell>
        <mxCell id="7BeZ9nyPgXJLnocpsz5R-44" value="Medial Temporal Lobe (MTL)&lt;div&gt;Hippocampus, episodic, navigation, grid cells&lt;/div&gt;" style="rounded=0;whiteSpace=wrap;html=1;" parent="1" vertex="1">
          <mxGeometry x="440" y="945" width="160" height="90" as="geometry" />
        </mxCell>
        <mxCell id="7BeZ9nyPgXJLnocpsz5R-45" value="" style="endArrow=classic;html=1;rounded=0;exitX=1;exitY=0.5;exitDx=0;exitDy=0;entryX=0;entryY=0.5;entryDx=0;entryDy=0;" parent="1" source="7BeZ9nyPgXJLnocpsz5R-39" target="7BeZ9nyPgXJLnocpsz5R-44" edge="1">
          <mxGeometry width="50" height="50" relative="1" as="geometry">
            <mxPoint x="600" y="950" as="sourcePoint" />
            <mxPoint x="650" y="900" as="targetPoint" />
          </mxGeometry>
        </mxCell>
        <mxCell id="7BeZ9nyPgXJLnocpsz5R-47" value="Prefrontal cortex&lt;div&gt;(a bird flies in a circle)&lt;/div&gt;" style="rounded=0;whiteSpace=wrap;html=1;" parent="1" vertex="1">
          <mxGeometry x="440" y="1165" width="160" height="90" as="geometry" />
        </mxCell>
        <mxCell id="7BeZ9nyPgXJLnocpsz5R-48" value="" style="endArrow=classic;html=1;rounded=0;exitX=1;exitY=0.75;exitDx=0;exitDy=0;entryX=0;entryY=0.25;entryDx=0;entryDy=0;" parent="1" source="7BeZ9nyPgXJLnocpsz5R-39" target="7BeZ9nyPgXJLnocpsz5R-47" edge="1">
          <mxGeometry width="50" height="50" relative="1" as="geometry">
            <mxPoint x="600" y="950" as="sourcePoint" />
            <mxPoint x="650" y="900" as="targetPoint" />
          </mxGeometry>
        </mxCell>
        <mxCell id="7BeZ9nyPgXJLnocpsz5R-49" value="" style="endArrow=classic;html=1;rounded=0;exitX=1;exitY=0.75;exitDx=0;exitDy=0;entryX=0;entryY=0.75;entryDx=0;entryDy=0;" parent="1" source="7BeZ9nyPgXJLnocpsz5R-41" target="7BeZ9nyPgXJLnocpsz5R-47" edge="1">
          <mxGeometry width="50" height="50" relative="1" as="geometry">
            <mxPoint x="600" y="950" as="sourcePoint" />
            <mxPoint x="650" y="900" as="targetPoint" />
          </mxGeometry>
        </mxCell>
        <mxCell id="7BeZ9nyPgXJLnocpsz5R-50" value="" style="endArrow=classic;html=1;rounded=0;exitX=1;exitY=0.5;exitDx=0;exitDy=0;entryX=0;entryY=0.611;entryDx=0;entryDy=0;entryPerimeter=0;" parent="1" source="7BeZ9nyPgXJLnocpsz5R-41" target="7BeZ9nyPgXJLnocpsz5R-44" edge="1">
          <mxGeometry width="50" height="50" relative="1" as="geometry">
            <mxPoint x="600" y="950" as="sourcePoint" />
            <mxPoint x="650" y="900" as="targetPoint" />
          </mxGeometry>
        </mxCell>
        <mxCell id="7BeZ9nyPgXJLnocpsz5R-51" value="V1&lt;div&gt;- feedforward features (at t=40ms)&lt;/div&gt;&lt;div&gt;- top down telling where to pay attention (generates saliency map at t=100ms)&lt;/div&gt;&lt;div&gt;- Predicting on pixels / image space&lt;/div&gt;" style="rounded=0;whiteSpace=wrap;html=1;" parent="1" vertex="1">
          <mxGeometry x="-340" y="480" width="260" height="120" as="geometry" />
        </mxCell>
        <mxCell id="7BeZ9nyPgXJLnocpsz5R-52" value="V2&lt;div&gt;- Predictive coding&lt;/div&gt;&lt;div&gt;- Predicting on pixels / image space&lt;/div&gt;&lt;div&gt;- Depth by comparing left and right&lt;/div&gt;" style="rounded=0;whiteSpace=wrap;html=1;" parent="1" vertex="1">
          <mxGeometry x="-340" y="630" width="260" height="120" as="geometry" />
        </mxCell>
        <mxCell id="7BeZ9nyPgXJLnocpsz5R-53" value="V3&lt;div&gt;- Motion / depth via disparity maps&lt;/div&gt;&lt;div&gt;- Global motion (direction, speed) of objects&lt;/div&gt;" style="rounded=0;whiteSpace=wrap;html=1;" parent="1" vertex="1">
          <mxGeometry x="-340" y="790" width="260" height="120" as="geometry" />
        </mxCell>
        <mxCell id="7BeZ9nyPgXJLnocpsz5R-54" value="MT&lt;br&gt;&lt;div&gt;- Motion / depth via disparity maps&lt;/div&gt;" style="rounded=0;whiteSpace=wrap;html=1;" parent="1" vertex="1">
          <mxGeometry x="-340" y="940" width="260" height="120" as="geometry" />
        </mxCell>
        <mxCell id="7BeZ9nyPgXJLnocpsz5R-55" value="V4&lt;div&gt;- simple shapes, surface features, object boundaries, object color&lt;/div&gt;" style="rounded=0;whiteSpace=wrap;html=1;" parent="1" vertex="1">
          <mxGeometry x="-340" y="1090" width="260" height="120" as="geometry" />
        </mxCell>
        <mxCell id="7BeZ9nyPgXJLnocpsz5R-56" value="PPC&lt;div&gt;- Now the brain puts objects from V4 into x,y,z coordinates relative to self&lt;/div&gt;&lt;div&gt;- inputs = V3/MT, head direction cells, gyroscope, MEC (hippocampus grid cells)&lt;/div&gt;&lt;div&gt;- Given current x,y,z state and head direction cell changes, does mymodel expect the object features given to me by V4?&lt;/div&gt;&lt;div&gt;- Has grid cell like coding for eye position, movement instead of in physical absolute x,y,z space (of the hippocampus maze firing grid cells)&lt;/div&gt;&lt;div&gt;- bidirectional with MEC (hippocampus grid cells) to update the MEC grid cells. MEC grid cells tell PPC where objects moved to&lt;/div&gt;" style="rounded=0;whiteSpace=wrap;html=1;" parent="1" vertex="1">
          <mxGeometry x="-395" y="1250" width="370" height="200" as="geometry" />
        </mxCell>
        <mxCell id="R5JsLaLzXKioPXl-SvFv-1" value="V1" style="rounded=0;whiteSpace=wrap;html=1;" vertex="1" parent="1">
          <mxGeometry x="-280" y="1585" width="120" height="60" as="geometry" />
        </mxCell>
        <mxCell id="R5JsLaLzXKioPXl-SvFv-2" value="Simple cells&lt;div&gt;- edge detectors&lt;/div&gt;&lt;div&gt;- bar detectors&lt;/div&gt;&lt;div&gt;- orientation and position specific&lt;/div&gt;" style="rounded=0;whiteSpace=wrap;html=1;" vertex="1" parent="1">
          <mxGeometry x="-60" y="1480" width="230" height="60" as="geometry" />
        </mxCell>
        <mxCell id="R5JsLaLzXKioPXl-SvFv-3" value="Complex cells&lt;div&gt;- edge detectors&lt;/div&gt;&lt;div&gt;- bar detectors&lt;/div&gt;&lt;div&gt;- not orientation and position specific&lt;/div&gt;&lt;div&gt;- respond to motion&lt;/div&gt;" style="rounded=0;whiteSpace=wrap;html=1;" vertex="1" parent="1">
          <mxGeometry x="-60" y="1570" width="230" height="90" as="geometry" />
        </mxCell>
        <mxCell id="R5JsLaLzXKioPXl-SvFv-4" value="End stop cells&lt;div&gt;- line endings, corners, curves&lt;/div&gt;&lt;div&gt;- end stop cells fire when a line terminates or curves thus a lot of these locally add up to a bigger curve&lt;/div&gt;" style="rounded=0;whiteSpace=wrap;html=1;" vertex="1" parent="1">
          <mxGeometry x="-60" y="1680" width="360" height="90" as="geometry" />
        </mxCell>
        <mxCell id="R5JsLaLzXKioPXl-SvFv-5" value="" style="endArrow=classic;html=1;rounded=0;exitX=1;exitY=0.5;exitDx=0;exitDy=0;entryX=0;entryY=0.5;entryDx=0;entryDy=0;" edge="1" parent="1" source="R5JsLaLzXKioPXl-SvFv-1" target="R5JsLaLzXKioPXl-SvFv-2">
          <mxGeometry width="50" height="50" relative="1" as="geometry">
            <mxPoint x="-10" y="1620" as="sourcePoint" />
            <mxPoint x="40" y="1570" as="targetPoint" />
          </mxGeometry>
        </mxCell>
        <mxCell id="R5JsLaLzXKioPXl-SvFv-6" value="" style="endArrow=classic;html=1;rounded=0;exitX=1;exitY=0.5;exitDx=0;exitDy=0;entryX=0;entryY=0.5;entryDx=0;entryDy=0;" edge="1" parent="1" source="R5JsLaLzXKioPXl-SvFv-1" target="R5JsLaLzXKioPXl-SvFv-3">
          <mxGeometry width="50" height="50" relative="1" as="geometry">
            <mxPoint x="-10" y="1620" as="sourcePoint" />
            <mxPoint x="40" y="1570" as="targetPoint" />
          </mxGeometry>
        </mxCell>
        <mxCell id="R5JsLaLzXKioPXl-SvFv-7" value="" style="endArrow=classic;html=1;rounded=0;exitX=1;exitY=0.5;exitDx=0;exitDy=0;entryX=0;entryY=0.5;entryDx=0;entryDy=0;" edge="1" parent="1" source="R5JsLaLzXKioPXl-SvFv-1" target="R5JsLaLzXKioPXl-SvFv-4">
          <mxGeometry width="50" height="50" relative="1" as="geometry">
            <mxPoint x="-10" y="1620" as="sourcePoint" />
            <mxPoint x="40" y="1570" as="targetPoint" />
          </mxGeometry>
        </mxCell>
        <mxCell id="R5JsLaLzXKioPXl-SvFv-8" value="V4&lt;div&gt;- one neuron for gentle curve going up vs another for sharp curve going downward&lt;/div&gt;&lt;div&gt;&amp;nbsp;- angle, spiral, concave, convex specific&lt;/div&gt;" style="rounded=0;whiteSpace=wrap;html=1;" vertex="1" parent="1">
          <mxGeometry x="109.5" y="1870" width="250" height="60" as="geometry" />
        </mxCell>
        <mxCell id="R5JsLaLzXKioPXl-SvFv-9" value="" style="endArrow=classic;html=1;rounded=0;exitX=0.25;exitY=1;exitDx=0;exitDy=0;entryX=0;entryY=0.5;entryDx=0;entryDy=0;" edge="1" parent="1" source="R5JsLaLzXKioPXl-SvFv-4" target="R5JsLaLzXKioPXl-SvFv-10">
          <mxGeometry width="50" height="50" relative="1" as="geometry">
            <mxPoint x="330" y="1790" as="sourcePoint" />
            <mxPoint x="380" y="1740" as="targetPoint" />
          </mxGeometry>
        </mxCell>
        <mxCell id="R5JsLaLzXKioPXl-SvFv-10" value="V2&lt;div&gt;- combinations of edges&lt;/div&gt;" style="rounded=0;whiteSpace=wrap;html=1;" vertex="1" parent="1">
          <mxGeometry x="59.5" y="1800" width="120" height="60" as="geometry" />
        </mxCell>
        <mxCell id="R5JsLaLzXKioPXl-SvFv-12" value="" style="endArrow=classic;html=1;rounded=0;exitX=0.25;exitY=1;exitDx=0;exitDy=0;entryX=0;entryY=0.5;entryDx=0;entryDy=0;" edge="1" parent="1" source="R5JsLaLzXKioPXl-SvFv-10" target="R5JsLaLzXKioPXl-SvFv-8">
          <mxGeometry width="50" height="50" relative="1" as="geometry">
            <mxPoint x="189.5" y="1700" as="sourcePoint" />
            <mxPoint x="239.5" y="1650" as="targetPoint" />
          </mxGeometry>
        </mxCell>
        <mxCell id="R5JsLaLzXKioPXl-SvFv-13" value="Inferotemporal Cortex (IT)&lt;div&gt;- Faces, objects&lt;/div&gt;" style="rounded=0;whiteSpace=wrap;html=1;" vertex="1" parent="1">
          <mxGeometry x="189.5" y="1950" width="170" height="60" as="geometry" />
        </mxCell>
        <mxCell id="R5JsLaLzXKioPXl-SvFv-14" value="" style="endArrow=classic;html=1;rounded=0;exitX=0.25;exitY=1;exitDx=0;exitDy=0;entryX=0;entryY=0.5;entryDx=0;entryDy=0;" edge="1" parent="1" source="R5JsLaLzXKioPXl-SvFv-8" target="R5JsLaLzXKioPXl-SvFv-13">
          <mxGeometry width="50" height="50" relative="1" as="geometry">
            <mxPoint x="269.5" y="1810" as="sourcePoint" />
            <mxPoint x="319.5" y="1760" as="targetPoint" />
          </mxGeometry>
        </mxCell>
        <mxCell id="R5JsLaLzXKioPXl-SvFv-15" value="LGN&lt;div&gt;- gauges range of objects&lt;/div&gt;&lt;div&gt;- tags every major object with a velocity tag&lt;/div&gt;" style="rounded=0;whiteSpace=wrap;html=1;" vertex="1" parent="1">
          <mxGeometry x="-330" y="220" width="210" height="60" as="geometry" />
        </mxCell>
        <mxCell id="R5JsLaLzXKioPXl-SvFv-16" value="V1&lt;div&gt;- Edge/bar detectors&lt;/div&gt;&lt;div&gt;- orientation specific&lt;/div&gt;" style="rounded=0;whiteSpace=wrap;html=1;" vertex="1" parent="1">
          <mxGeometry x="-60" y="220" width="120" height="60" as="geometry" />
        </mxCell>
        <mxCell id="R5JsLaLzXKioPXl-SvFv-17" value="" style="endArrow=classic;html=1;rounded=0;exitX=1;exitY=0.5;exitDx=0;exitDy=0;entryX=0;entryY=0.5;entryDx=0;entryDy=0;" edge="1" parent="1" source="R5JsLaLzXKioPXl-SvFv-15" target="R5JsLaLzXKioPXl-SvFv-16">
          <mxGeometry width="50" height="50" relative="1" as="geometry">
            <mxPoint x="-130" y="360" as="sourcePoint" />
            <mxPoint x="-80" y="310" as="targetPoint" />
          </mxGeometry>
        </mxCell>
        <mxCell id="R5JsLaLzXKioPXl-SvFv-18" value="V3&lt;div&gt;- Global motion of objects&lt;/div&gt;" style="rounded=0;whiteSpace=wrap;html=1;" vertex="1" parent="1">
          <mxGeometry x="220" y="220" width="120" height="60" as="geometry" />
        </mxCell>
        <mxCell id="R5JsLaLzXKioPXl-SvFv-19" value="V2&lt;div&gt;- Simple combination of edges resulting in simple curves&lt;/div&gt;" style="rounded=0;whiteSpace=wrap;html=1;" vertex="1" parent="1">
          <mxGeometry x="80" y="220" width="120" height="60" as="geometry" />
        </mxCell>
        <mxCell id="R5JsLaLzXKioPXl-SvFv-20" value="" style="curved=1;endArrow=classic;html=1;rounded=0;exitX=1;exitY=0.75;exitDx=0;exitDy=0;entryX=0.5;entryY=1;entryDx=0;entryDy=0;" edge="1" parent="1" source="R5JsLaLzXKioPXl-SvFv-15" target="R5JsLaLzXKioPXl-SvFv-19">
          <mxGeometry width="50" height="50" relative="1" as="geometry">
            <mxPoint x="-130" y="360" as="sourcePoint" />
            <mxPoint x="140" y="320" as="targetPoint" />
            <Array as="points">
              <mxPoint x="-100" y="300" />
              <mxPoint x="20" y="320" />
            </Array>
          </mxGeometry>
        </mxCell>
        <mxCell id="R5JsLaLzXKioPXl-SvFv-21" value="" style="curved=1;endArrow=classic;html=1;rounded=0;exitX=1;exitY=1;exitDx=0;exitDy=0;entryX=0.5;entryY=1;entryDx=0;entryDy=0;" edge="1" parent="1" source="R5JsLaLzXKioPXl-SvFv-15" target="R5JsLaLzXKioPXl-SvFv-18">
          <mxGeometry width="50" height="50" relative="1" as="geometry">
            <mxPoint x="-110" y="275" as="sourcePoint" />
            <mxPoint x="150" y="290" as="targetPoint" />
            <Array as="points">
              <mxPoint x="-90" y="310" />
              <mxPoint x="30" y="350" />
            </Array>
          </mxGeometry>
        </mxCell>
        <mxCell id="R5JsLaLzXKioPXl-SvFv-22" value="Optic chiasm&lt;div&gt;- No neurons&lt;/div&gt;&lt;div&gt;- Left side vs right side of focal point joined&lt;/div&gt;" style="rounded=0;whiteSpace=wrap;html=1;" vertex="1" parent="1">
          <mxGeometry x="-40" y="-170" width="120" height="100" as="geometry" />
        </mxCell>
        <mxCell id="R5JsLaLzXKioPXl-SvFv-23" value="" style="endArrow=classic;html=1;rounded=0;exitX=1;exitY=0.5;exitDx=0;exitDy=0;entryX=0;entryY=0.5;entryDx=0;entryDy=0;" edge="1" parent="1" source="7BeZ9nyPgXJLnocpsz5R-4" target="R5JsLaLzXKioPXl-SvFv-22">
          <mxGeometry width="50" height="50" relative="1" as="geometry">
            <mxPoint x="40" y="-120" as="sourcePoint" />
            <mxPoint x="90" y="-170" as="targetPoint" />
          </mxGeometry>
        </mxCell>
        <mxCell id="R5JsLaLzXKioPXl-SvFv-24" value="" style="endArrow=classic;html=1;rounded=0;exitX=0.5;exitY=1;exitDx=0;exitDy=0;entryX=0.5;entryY=0;entryDx=0;entryDy=0;" edge="1" parent="1" source="R5JsLaLzXKioPXl-SvFv-22" target="R5JsLaLzXKioPXl-SvFv-15">
          <mxGeometry width="50" height="50" relative="1" as="geometry">
            <mxPoint x="40" y="230" as="sourcePoint" />
            <mxPoint x="90" y="180" as="targetPoint" />
          </mxGeometry>
        </mxCell>
        <mxCell id="R5JsLaLzXKioPXl-SvFv-25" value="" style="curved=1;endArrow=classic;html=1;rounded=0;exitX=0.5;exitY=0;exitDx=0;exitDy=0;entryX=0.5;entryY=0;entryDx=0;entryDy=0;" edge="1" parent="1" source="R5JsLaLzXKioPXl-SvFv-19" target="R5JsLaLzXKioPXl-SvFv-16">
          <mxGeometry width="50" height="50" relative="1" as="geometry">
            <mxPoint y="130" as="sourcePoint" />
            <mxPoint x="260" y="145" as="targetPoint" />
            <Array as="points">
              <mxPoint x="120" y="200" />
              <mxPoint x="50" y="190" />
            </Array>
          </mxGeometry>
        </mxCell>
        <mxCell id="R5JsLaLzXKioPXl-SvFv-26" value="" style="curved=1;endArrow=classic;html=1;rounded=0;exitX=0.5;exitY=0;exitDx=0;exitDy=0;entryX=0.5;entryY=0;entryDx=0;entryDy=0;" edge="1" parent="1" source="R5JsLaLzXKioPXl-SvFv-18" target="R5JsLaLzXKioPXl-SvFv-19">
          <mxGeometry width="50" height="50" relative="1" as="geometry">
            <mxPoint x="280" y="220" as="sourcePoint" />
            <mxPoint x="140" y="220" as="targetPoint" />
            <Array as="points">
              <mxPoint x="260" y="200" />
              <mxPoint x="190" y="190" />
            </Array>
          </mxGeometry>
        </mxCell>
        <mxCell id="R5JsLaLzXKioPXl-SvFv-27" value="V4&lt;div&gt;- simple shapes&lt;/div&gt;&lt;div&gt;- surface features&lt;/div&gt;&lt;div&gt;- object boundaries&lt;/div&gt;" style="rounded=0;whiteSpace=wrap;html=1;" vertex="1" parent="1">
          <mxGeometry x="360" y="220" width="120" height="60" as="geometry" />
        </mxCell>
        <mxCell id="R5JsLaLzXKioPXl-SvFv-28" value="V5" style="rounded=0;whiteSpace=wrap;html=1;" vertex="1" parent="1">
          <mxGeometry x="500" y="220" width="120" height="60" as="geometry" />
        </mxCell>
        <mxCell id="R5JsLaLzXKioPXl-SvFv-29" value="" style="curved=1;endArrow=classic;html=1;rounded=0;entryX=0;entryY=0.5;entryDx=0;entryDy=0;" edge="1" parent="1" target="R5JsLaLzXKioPXl-SvFv-30">
          <mxGeometry width="50" height="50" relative="1" as="geometry">
            <mxPoint x="280" y="280" as="sourcePoint" />
            <mxPoint x="560" y="325" as="targetPoint" />
            <Array as="points">
              <mxPoint x="320" y="345" />
            </Array>
          </mxGeometry>
        </mxCell>
        <mxCell id="R5JsLaLzXKioPXl-SvFv-30" value="Inferior temporal cortex (IT)&lt;div&gt;- faces, objects&lt;/div&gt;" style="rounded=0;whiteSpace=wrap;html=1;" vertex="1" parent="1">
          <mxGeometry x="440" y="340" width="150" height="60" as="geometry" />
        </mxCell>
        <mxCell id="R5JsLaLzXKioPXl-SvFv-31" value="" style="curved=1;endArrow=classic;html=1;rounded=0;exitX=0.5;exitY=1;exitDx=0;exitDy=0;entryX=0.5;entryY=1;entryDx=0;entryDy=0;" edge="1" parent="1" source="R5JsLaLzXKioPXl-SvFv-16" target="R5JsLaLzXKioPXl-SvFv-27">
          <mxGeometry width="50" height="50" relative="1" as="geometry">
            <mxPoint x="40" y="330" as="sourcePoint" />
            <mxPoint x="300" y="345" as="targetPoint" />
            <Array as="points">
              <mxPoint x="60" y="365" />
              <mxPoint x="180" y="385" />
            </Array>
          </mxGeometry>
        </mxCell>
        <mxCell id="R5JsLaLzXKioPXl-SvFv-32" value="" style="curved=1;endArrow=classic;html=1;rounded=0;exitX=0.5;exitY=1;exitDx=0;exitDy=0;entryX=0.25;entryY=1;entryDx=0;entryDy=0;" edge="1" parent="1" source="R5JsLaLzXKioPXl-SvFv-19" target="R5JsLaLzXKioPXl-SvFv-27">
          <mxGeometry width="50" height="50" relative="1" as="geometry">
            <mxPoint x="110" y="300" as="sourcePoint" />
            <mxPoint x="530" y="300" as="targetPoint" />
            <Array as="points">
              <mxPoint x="170" y="320" />
              <mxPoint x="230" y="330" />
              <mxPoint x="290" y="320" />
            </Array>
          </mxGeometry>
        </mxCell>
        <mxCell id="R5JsLaLzXKioPXl-SvFv-33" value="" style="curved=1;endArrow=classic;html=1;rounded=0;exitX=1;exitY=1;exitDx=0;exitDy=0;entryX=0.75;entryY=1;entryDx=0;entryDy=0;" edge="1" parent="1" source="R5JsLaLzXKioPXl-SvFv-15" target="R5JsLaLzXKioPXl-SvFv-27">
          <mxGeometry width="50" height="50" relative="1" as="geometry">
            <mxPoint x="280" y="265" as="sourcePoint" />
            <mxPoint x="810" y="270" as="targetPoint" />
            <Array as="points">
              <mxPoint x="-90" y="330" />
              <mxPoint x="-40" y="370" />
              <mxPoint x="20" y="390" />
              <mxPoint x="100" y="410" />
              <mxPoint x="120" y="410" />
              <mxPoint x="140" y="410" />
              <mxPoint x="280" y="390" />
            </Array>
          </mxGeometry>
        </mxCell>
        <mxCell id="R5JsLaLzXKioPXl-SvFv-34" value="V6&lt;div&gt;- Topographical map (contour map)&lt;/div&gt;&lt;div&gt;- motion of objects relative to background&lt;/div&gt;" style="rounded=0;whiteSpace=wrap;html=1;" vertex="1" parent="1">
          <mxGeometry x="200" y="40" width="250" height="60" as="geometry" />
        </mxCell>
        <mxCell id="R5JsLaLzXKioPXl-SvFv-35" value="" style="endArrow=classic;html=1;rounded=0;exitX=0.5;exitY=0;exitDx=0;exitDy=0;entryX=0.75;entryY=1;entryDx=0;entryDy=0;" edge="1" parent="1" source="R5JsLaLzXKioPXl-SvFv-28" target="R5JsLaLzXKioPXl-SvFv-34">
          <mxGeometry width="50" height="50" relative="1" as="geometry">
            <mxPoint x="220" y="290" as="sourcePoint" />
            <mxPoint x="270" y="240" as="targetPoint" />
          </mxGeometry>
        </mxCell>
        <mxCell id="R5JsLaLzXKioPXl-SvFv-36" value="" style="endArrow=classic;html=1;rounded=0;exitX=0.25;exitY=0;exitDx=0;exitDy=0;entryX=0;entryY=0.5;entryDx=0;entryDy=0;" edge="1" parent="1" source="R5JsLaLzXKioPXl-SvFv-16" target="R5JsLaLzXKioPXl-SvFv-34">
          <mxGeometry width="50" height="50" relative="1" as="geometry">
            <mxPoint x="220" y="290" as="sourcePoint" />
            <mxPoint x="270" y="240" as="targetPoint" />
          </mxGeometry>
        </mxCell>
        <mxCell id="R5JsLaLzXKioPXl-SvFv-37" value="" style="curved=1;endArrow=classic;html=1;rounded=0;exitX=0.5;exitY=1;exitDx=0;exitDy=0;entryX=0.25;entryY=1;entryDx=0;entryDy=0;" edge="1" parent="1" source="R5JsLaLzXKioPXl-SvFv-19" target="R5JsLaLzXKioPXl-SvFv-28">
          <mxGeometry width="50" height="50" relative="1" as="geometry">
            <mxPoint x="150" y="290" as="sourcePoint" />
            <mxPoint x="400" y="290" as="targetPoint" />
            <Array as="points">
              <mxPoint x="180" y="330" />
              <mxPoint x="240" y="340" />
              <mxPoint x="300" y="340" />
            </Array>
          </mxGeometry>
        </mxCell>
        <mxCell id="R5JsLaLzXKioPXl-SvFv-38" value="" style="endArrow=classic;html=1;rounded=0;exitX=1;exitY=0.5;exitDx=0;exitDy=0;" edge="1" parent="1" source="R5JsLaLzXKioPXl-SvFv-27" target="R5JsLaLzXKioPXl-SvFv-28">
          <mxGeometry width="50" height="50" relative="1" as="geometry">
            <mxPoint x="400" y="460" as="sourcePoint" />
            <mxPoint x="450" y="410" as="targetPoint" />
          </mxGeometry>
        </mxCell>
        <mxCell id="R5JsLaLzXKioPXl-SvFv-39" value="" style="endArrow=classic;html=1;rounded=0;exitX=0;exitY=0.25;exitDx=0;exitDy=0;entryX=1;entryY=0.25;entryDx=0;entryDy=0;" edge="1" parent="1" source="R5JsLaLzXKioPXl-SvFv-28" target="R5JsLaLzXKioPXl-SvFv-27">
          <mxGeometry width="50" height="50" relative="1" as="geometry">
            <mxPoint x="400" y="460" as="sourcePoint" />
            <mxPoint x="450" y="410" as="targetPoint" />
          </mxGeometry>
        </mxCell>
        <mxCell id="R5JsLaLzXKioPXl-SvFv-40" value="" style="curved=1;endArrow=classic;html=1;rounded=0;exitX=0.5;exitY=1;exitDx=0;exitDy=0;entryX=0.5;entryY=1;entryDx=0;entryDy=0;" edge="1" parent="1" source="R5JsLaLzXKioPXl-SvFv-16" target="R5JsLaLzXKioPXl-SvFv-28">
          <mxGeometry width="50" height="50" relative="1" as="geometry">
            <mxPoint x="10" y="290" as="sourcePoint" />
            <mxPoint x="430" y="290" as="targetPoint" />
            <Array as="points">
              <mxPoint x="70" y="375" />
              <mxPoint x="190" y="395" />
            </Array>
          </mxGeometry>
        </mxCell>
        <mxCell id="R5JsLaLzXKioPXl-SvFv-41" value="" style="endArrow=classic;html=1;rounded=0;exitX=1;exitY=1;exitDx=0;exitDy=0;entryX=0.5;entryY=0;entryDx=0;entryDy=0;" edge="1" parent="1" source="R5JsLaLzXKioPXl-SvFv-27" target="R5JsLaLzXKioPXl-SvFv-30">
          <mxGeometry width="50" height="50" relative="1" as="geometry">
            <mxPoint x="280" y="400" as="sourcePoint" />
            <mxPoint x="330" y="350" as="targetPoint" />
          </mxGeometry>
        </mxCell>
      </root>
    </mxGraphModel>
  </diagram>
</mxfile>
